{
    "asset" : {
        "generator" : "Khronos glTF Blender I/O v1.8.19",
        "version" : "2.0"
    },
    "scene" : 0,
    "scenes" : [
        {
            "name" : "Scene",
            "nodes" : [
                8
            ]
        }
    ],
    "nodes" : [
        {
            "mesh" : 0,
            "name" : "Cube.002",
            "scale" : [
                1,
                2.862271785736084,
                0.3191084563732147
            ],
            "translation" : [
                0,
                3.8886189460754395,
                -0.7006843090057373
            ]
        },
        {
            "children" : [
                0
            ],
            "mesh" : 1,
            "name" : "Cube.001",
            "scale" : [
                1,
                1,
                3.133730411529541
            ],
            "translation" : [
                0,
                0,
                -4.122408866882324
            ]
        },
        {
            "mesh" : 2,
            "name" : "Cube.003",
            "scale" : [
                1,
                2.862272024154663,
                0.3191084861755371
            ],
            "translation" : [
                0,
                3.8886191844940186,
                -0.7006843090057373
            ]
        },
        {
            "children" : [
                2
            ],
            "mesh" : 3,
            "name" : "Cube.004",
            "rotation" : [
                -0.7056474089622498,
                0,
                0,
                0.7085631489753723
            ],
            "scale" : [
                1,
                1,
                3.133730411529541
            ],
            "translation" : [
                0,
                -4.174153804779053,
                -0.04624032974243164
            ]
        },
        {
            "mesh" : 4,
            "name" : "Cube.008",
            "scale" : [
                1,
                2.862272262573242,
                0.3191084861755371
            ],
            "translation" : [
                0,
                3.8886196613311768,
                -0.7006845474243164
            ]
        },
        {
            "children" : [
                4
            ],
            "mesh" : 5,
            "name" : "Cube.007",
            "rotation" : [
                -0.9999986290931702,
                0,
                0,
                -0.0016632509650662541
            ],
            "scale" : [
                1,
                1,
                3.133730411529541
            ],
            "translation" : [
                0,
                -0.039193931967020035,
                4.108316421508789
            ]
        },
        {
            "mesh" : 6,
            "name" : "Cube.009",
            "scale" : [
                1,
                2.862272262573242,
                0.3191084861755371
            ],
            "translation" : [
                0,
                3.8886194229125977,
                -0.7006844282150269
            ]
        },
        {
            "children" : [
                6
            ],
            "mesh" : 7,
            "name" : "Cube.010",
            "rotation" : [
                0.7094382643699646,
                0,
                0,
                0.7047675848007202
            ],
            "scale" : [
                1,
                1,
                3.133730411529541
            ],
            "translation" : [
                0,
                4.174153804779053,
                -0.007046222686767578
            ]
        },
        {
            "children" : [
                1,
                3,
                5,
                7
            ],
            "mesh" : 8,
            "name" : "Cube"
        }
    ],
    "animations" : [
        {
            "channels" : [
                {
                    "sampler" : 0,
                    "target" : {
                        "node" : 8,
                        "path" : "translation"
                    }
                },
                {
                    "sampler" : 1,
                    "target" : {
                        "node" : 8,
                        "path" : "rotation"
                    }
                }
            ],
            "name" : "idle",
            "samplers" : [
                {
                    "input" : 41,
                    "interpolation" : "LINEAR",
                    "output" : 42
                },
                {
                    "input" : 43,
                    "interpolation" : "LINEAR",
                    "output" : 44
                }
            ]
        }
    ],
    "materials" : [
        {
            "doubleSided" : true,
            "name" : "Material",
            "pbrMetallicRoughness" : {
                "baseColorFactor" : [
                    0.800000011920929,
                    0.800000011920929,
                    0.800000011920929,
                    1
                ],
                "metallicFactor" : 0,
                "roughnessFactor" : 0.4000000059604645
            }
        },
        {
            "doubleSided" : true,
            "name" : "Material.001",
            "pbrMetallicRoughness" : {
                "baseColorFactor" : [
                    0.800000011920929,
                    0.800000011920929,
                    0.800000011920929,
                    1
                ],
                "metallicFactor" : 0,
                "roughnessFactor" : 0.4000000059604645
            }
        },
        {
            "doubleSided" : true,
            "name" : "Material.002",
            "pbrMetallicRoughness" : {
                "baseColorFactor" : [
                    0.800000011920929,
                    0.800000011920929,
                    0.800000011920929,
                    1
                ],
                "metallicFactor" : 0,
                "roughnessFactor" : 0.4000000059604645
            }
        },
        {
            "doubleSided" : true,
            "name" : "Material.003",
            "pbrMetallicRoughness" : {
                "baseColorFactor" : [
                    0.800000011920929,
                    0.800000011920929,
                    0.800000011920929,
                    1
                ],
                "metallicFactor" : 0,
                "roughnessFactor" : 0.4000000059604645
            }
        }
    ],
    "meshes" : [
        {
            "name" : "Cube.002",
            "primitives" : [
                {
                    "attributes" : {
                        "POSITION" : 0,
                        "NORMAL" : 1,
                        "TEXCOORD_0" : 2
                    },
                    "indices" : 3
                }
            ]
        },
        {
            "name" : "Cube.001",
            "primitives" : [
                {
                    "attributes" : {
                        "POSITION" : 4,
                        "NORMAL" : 5,
                        "TEXCOORD_0" : 6
                    },
                    "indices" : 3
                }
            ]
        },
        {
            "name" : "Cube.003",
            "primitives" : [
                {
                    "attributes" : {
                        "POSITION" : 7,
                        "NORMAL" : 8,
                        "TEXCOORD_0" : 9
                    },
                    "indices" : 3
                }
            ]
        },
        {
            "name" : "Cube.004",
            "primitives" : [
                {
                    "attributes" : {
                        "POSITION" : 10,
                        "NORMAL" : 11,
                        "TEXCOORD_0" : 12
                    },
                    "indices" : 3
                }
            ]
        },
        {
            "name" : "Cube.008",
            "primitives" : [
                {
                    "attributes" : {
                        "POSITION" : 13,
                        "NORMAL" : 14,
                        "TEXCOORD_0" : 15
                    },
                    "indices" : 3
                }
            ]
        },
        {
            "name" : "Cube.007",
            "primitives" : [
                {
                    "attributes" : {
                        "POSITION" : 16,
                        "NORMAL" : 17,
                        "TEXCOORD_0" : 18
                    },
                    "indices" : 3
                }
            ]
        },
        {
            "name" : "Cube.009",
            "primitives" : [
                {
                    "attributes" : {
                        "POSITION" : 19,
                        "NORMAL" : 20,
                        "TEXCOORD_0" : 21
                    },
                    "indices" : 3
                }
            ]
        },
        {
            "name" : "Cube.010",
            "primitives" : [
                {
                    "attributes" : {
                        "POSITION" : 22,
                        "NORMAL" : 23,
                        "TEXCOORD_0" : 24
                    },
                    "indices" : 3
                }
            ]
        },
        {
            "name" : "Cube",
            "primitives" : [
                {
                    "attributes" : {
                        "POSITION" : 25,
                        "NORMAL" : 26,
                        "TEXCOORD_0" : 27
                    },
                    "indices" : 28,
                    "material" : 0
                },
                {
                    "attributes" : {
                        "POSITION" : 29,
                        "NORMAL" : 30,
                        "TEXCOORD_0" : 31
                    },
                    "indices" : 32,
                    "material" : 1
                },
                {
                    "attributes" : {
                        "POSITION" : 33,
                        "NORMAL" : 34,
                        "TEXCOORD_0" : 35
                    },
                    "indices" : 36,
                    "material" : 2
                },
                {
                    "attributes" : {
                        "POSITION" : 37,
                        "NORMAL" : 38,
                        "TEXCOORD_0" : 39
                    },
                    "indices" : 40,
                    "material" : 3
                }
            ]
        }
    ],
    "accessors" : [
        {
            "bufferView" : 0,
            "componentType" : 5126,
            "count" : 24,
            "max" : [
                1,
                1,
                1
            ],
            "min" : [
                -1,
                -1,
                -1
            ],
            "type" : "VEC3"
        },
        {
            "bufferView" : 1,
            "componentType" : 5126,
            "count" : 24,
            "type" : "VEC3"
        },
        {
            "bufferView" : 2,
            "componentType" : 5126,
            "count" : 24,
            "type" : "VEC2"
        },
        {
            "bufferView" : 3,
            "componentType" : 5123,
            "count" : 36,
            "type" : "SCALAR"
        },
        {
            "bufferView" : 4,
            "componentType" : 5126,
            "count" : 24,
            "max" : [
                1,
                1,
                1
            ],
            "min" : [
                -1,
                -1,
                -1
            ],
            "type" : "VEC3"
        },
        {
            "bufferView" : 5,
            "componentType" : 5126,
            "count" : 24,
            "type" : "VEC3"
        },
        {
            "bufferView" : 6,
            "componentType" : 5126,
            "count" : 24,
            "type" : "VEC2"
        },
        {
            "bufferView" : 7,
            "componentType" : 5126,
            "count" : 24,
            "max" : [
                1,
                1,
                1
            ],
            "min" : [
                -1,
                -1,
                -1
            ],
            "type" : "VEC3"
        },
        {
            "bufferView" : 8,
            "componentType" : 5126,
            "count" : 24,
            "type" : "VEC3"
        },
        {
            "bufferView" : 9,
            "componentType" : 5126,
            "count" : 24,
            "type" : "VEC2"
        },
        {
            "bufferView" : 10,
            "componentType" : 5126,
            "count" : 24,
            "max" : [
                1,
                1,
                1
            ],
            "min" : [
                -1,
                -1,
                -1
            ],
            "type" : "VEC3"
        },
        {
            "bufferView" : 11,
            "componentType" : 5126,
            "count" : 24,
            "type" : "VEC3"
        },
        {
            "bufferView" : 12,
            "componentType" : 5126,
            "count" : 24,
            "type" : "VEC2"
        },
        {
            "bufferView" : 13,
            "componentType" : 5126,
            "count" : 24,
            "max" : [
                1,
                1,
                1
            ],
            "min" : [
                -1,
                -1,
                -1
            ],
            "type" : "VEC3"
        },
        {
            "bufferView" : 14,
            "componentType" : 5126,
            "count" : 24,
            "type" : "VEC3"
        },
        {
            "bufferView" : 15,
            "componentType" : 5126,
            "count" : 24,
            "type" : "VEC2"
        },
        {
            "bufferView" : 16,
            "componentType" : 5126,
            "count" : 24,
            "max" : [
                1,
                1,
                1
            ],
            "min" : [
                -1,
                -1,
                -1
            ],
            "type" : "VEC3"
        },
        {
            "bufferView" : 17,
            "componentType" : 5126,
            "count" : 24,
            "type" : "VEC3"
        },
        {
            "bufferView" : 18,
            "componentType" : 5126,
            "count" : 24,
            "type" : "VEC2"
        },
        {
            "bufferView" : 19,
            "componentType" : 5126,
            "count" : 24,
            "max" : [
                1,
                1,
                1
            ],
            "min" : [
                -1,
                -1,
                -1
            ],
            "type" : "VEC3"
        },
        {
            "bufferView" : 20,
            "componentType" : 5126,
            "count" : 24,
            "type" : "VEC3"
        },
        {
            "bufferView" : 21,
            "componentType" : 5126,
            "count" : 24,
            "type" : "VEC2"
        },
        {
            "bufferView" : 22,
            "componentType" : 5126,
            "count" : 24,
            "max" : [
                1,
                1,
                1
            ],
            "min" : [
                -1,
                -1,
                -1
            ],
            "type" : "VEC3"
        },
        {
            "bufferView" : 23,
            "componentType" : 5126,
            "count" : 24,
            "type" : "VEC3"
        },
        {
            "bufferView" : 24,
            "componentType" : 5126,
            "count" : 24,
            "type" : "VEC2"
        },
        {
            "bufferView" : 25,
            "componentType" : 5126,
            "count" : 24,
            "max" : [
                1,
                1,
                1
            ],
            "min" : [
                -1,
                -1,
                -1
            ],
            "type" : "VEC3"
        },
        {
            "bufferView" : 26,
            "componentType" : 5126,
            "count" : 24,
            "type" : "VEC3"
        },
        {
            "bufferView" : 27,
            "componentType" : 5126,
            "count" : 24,
            "type" : "VEC2"
        },
        {
            "bufferView" : 28,
            "componentType" : 5123,
            "count" : 36,
            "type" : "SCALAR"
        },
        {
            "bufferView" : 29,
            "componentType" : 5126,
            "count" : 24,
            "max" : [
                1,
                1.011987566947937,
                1.011987566947937
            ],
            "min" : [
                -1,
                -1.011987566947937,
                -1.011987566947937
            ],
            "type" : "VEC3"
        },
        {
            "bufferView" : 30,
            "componentType" : 5126,
            "count" : 24,
            "type" : "VEC3"
        },
        {
            "bufferView" : 31,
            "componentType" : 5126,
            "count" : 24,
            "type" : "VEC2"
        },
        {
            "bufferView" : 32,
            "componentType" : 5123,
            "count" : 36,
            "type" : "SCALAR"
        },
        {
            "bufferView" : 33,
            "componentType" : 5126,
            "count" : 24,
            "max" : [
                1,
                1.0083097219467163,
                1.0083097219467163
            ],
            "min" : [
                -1,
                -1.0083097219467163,
                -1.0083097219467163
            ],
            "type" : "VEC3"
        },
        {
            "bufferView" : 34,
            "componentType" : 5126,
            "count" : 24,
            "type" : "VEC3"
        },
        {
            "bufferView" : 35,
            "componentType" : 5126,
            "count" : 24,
            "type" : "VEC2"
        },
        {
            "bufferView" : 36,
            "componentType" : 5123,
            "count" : 36,
            "type" : "SCALAR"
        },
        {
            "bufferView" : 37,
            "componentType" : 5126,
            "count" : 24,
            "max" : [
                1,
                1.0201956033706665,
                1.0201956033706665
            ],
            "min" : [
                -1,
                -1.0201956033706665,
                -1.0201956033706665
            ],
            "type" : "VEC3"
        },
        {
            "bufferView" : 38,
            "componentType" : 5126,
            "count" : 24,
            "type" : "VEC3"
        },
        {
            "bufferView" : 39,
            "componentType" : 5126,
            "count" : 24,
            "type" : "VEC2"
        },
        {
            "bufferView" : 40,
            "componentType" : 5123,
            "count" : 36,
            "type" : "SCALAR"
        },
        {
            "bufferView" : 41,
            "componentType" : 5126,
            "count" : 2,
            "max" : [
                15
            ],
            "min" : [
                0.041666666666666664
            ],
            "type" : "SCALAR"
        },
        {
            "bufferView" : 42,
            "componentType" : 5126,
            "count" : 2,
            "type" : "VEC3"
        },
        {
            "bufferView" : 43,
            "componentType" : 5126,
            "count" : 360,
            "max" : [
                15
            ],
            "min" : [
                0.041666666666666664
            ],
            "type" : "SCALAR"
        },
        {
            "bufferView" : 44,
            "componentType" : 5126,
            "count" : 360,
            "type" : "VEC4"
        }
    ],
    "bufferViews" : [
        {
            "buffer" : 0,
            "byteLength" : 288,
            "byteOffset" : 0
        },
        {
            "buffer" : 0,
            "byteLength" : 288,
            "byteOffset" : 288
        },
        {
            "buffer" : 0,
            "byteLength" : 192,
            "byteOffset" : 576
        },
        {
            "buffer" : 0,
            "byteLength" : 72,
            "byteOffset" : 768
        },
        {
            "buffer" : 0,
            "byteLength" : 288,
            "byteOffset" : 840
        },
        {
            "buffer" : 0,
            "byteLength" : 288,
            "byteOffset" : 1128
        },
        {
            "buffer" : 0,
            "byteLength" : 192,
            "byteOffset" : 1416
        },
        {
            "buffer" : 0,
            "byteLength" : 288,
            "byteOffset" : 1608
        },
        {
            "buffer" : 0,
            "byteLength" : 288,
            "byteOffset" : 1896
        },
        {
            "buffer" : 0,
            "byteLength" : 192,
            "byteOffset" : 2184
        },
        {
            "buffer" : 0,
            "byteLength" : 288,
            "byteOffset" : 2376
        },
        {
            "buffer" : 0,
            "byteLength" : 288,
            "byteOffset" : 2664
        },
        {
            "buffer" : 0,
            "byteLength" : 192,
            "byteOffset" : 2952
        },
        {
            "buffer" : 0,
            "byteLength" : 288,
            "byteOffset" : 3144
        },
        {
            "buffer" : 0,
            "byteLength" : 288,
            "byteOffset" : 3432
        },
        {
            "buffer" : 0,
            "byteLength" : 192,
            "byteOffset" : 3720
        },
        {
            "buffer" : 0,
            "byteLength" : 288,
            "byteOffset" : 3912
        },
        {
            "buffer" : 0,
            "byteLength" : 288,
            "byteOffset" : 4200
        },
        {
            "buffer" : 0,
            "byteLength" : 192,
            "byteOffset" : 4488
        },
        {
            "buffer" : 0,
            "byteLength" : 288,
            "byteOffset" : 4680
        },
        {
            "buffer" : 0,
            "byteLength" : 288,
            "byteOffset" : 4968
        },
        {
            "buffer" : 0,
            "byteLength" : 192,
            "byteOffset" : 5256
        },
        {
            "buffer" : 0,
            "byteLength" : 288,
            "byteOffset" : 5448
        },
        {
            "buffer" : 0,
            "byteLength" : 288,
            "byteOffset" : 5736
        },
        {
            "buffer" : 0,
            "byteLength" : 192,
            "byteOffset" : 6024
        },
        {
            "buffer" : 0,
            "byteLength" : 288,
            "byteOffset" : 6216
        },
        {
            "buffer" : 0,
            "byteLength" : 288,
            "byteOffset" : 6504
        },
        {
            "buffer" : 0,
            "byteLength" : 192,
            "byteOffset" : 6792
        },
        {
            "buffer" : 0,
            "byteLength" : 72,
            "byteOffset" : 6984
        },
        {
            "buffer" : 0,
            "byteLength" : 288,
            "byteOffset" : 7056
        },
        {
            "buffer" : 0,
            "byteLength" : 288,
            "byteOffset" : 7344
        },
        {
            "buffer" : 0,
            "byteLength" : 192,
            "byteOffset" : 7632
        },
        {
            "buffer" : 0,
            "byteLength" : 72,
            "byteOffset" : 7824
        },
        {
            "buffer" : 0,
            "byteLength" : 288,
            "byteOffset" : 7896
        },
        {
            "buffer" : 0,
            "byteLength" : 288,
            "byteOffset" : 8184
        },
        {
            "buffer" : 0,
            "byteLength" : 192,
            "byteOffset" : 8472
        },
        {
            "buffer" : 0,
            "byteLength" : 72,
            "byteOffset" : 8664
        },
        {
            "buffer" : 0,
            "byteLength" : 288,
            "byteOffset" : 8736
        },
        {
            "buffer" : 0,
            "byteLength" : 288,
            "byteOffset" : 9024
        },
        {
            "buffer" : 0,
            "byteLength" : 192,
            "byteOffset" : 9312
        },
        {
            "buffer" : 0,
            "byteLength" : 72,
            "byteOffset" : 9504
        },
        {
            "buffer" : 0,
            "byteLength" : 8,
            "byteOffset" : 9576
        },
        {
            "buffer" : 0,
            "byteLength" : 24,
            "byteOffset" : 9584
        },
        {
            "buffer" : 0,
            "byteLength" : 1440,
            "byteOffset" : 9608
        },
        {
            "buffer" : 0,
            "byteLength" : 5760,
            "byteOffset" : 11048
        }
    ],
    "buffers" : [
        {
            "byteLength" : 16808,
            "uri" : "friendship_wheel.bin"
        }
    ]
}
